<svg version="1.2" xmlns="http://www.w3.org/2000/svg" viewBox="0 0 574 580" width="574" height="580">
	<style>
		.s0 { fill: #ea1c26 } 
		.s1 { fill: none;stroke: #ea1c26;stroke-miterlimit:100;stroke-width: 35 } 
	</style>
	<path class="s0" d="m543 252.5c0 26.51 0 53.02-0.21 79.76-0.39 0.46-0.7 0.67-0.73 0.92-2.65 18.17-7.53 35.74-14.16 52.84-11.22 28.92-27.02 55.08-47.89 78.05-38.36 42.2-85.59 68.9-141.41 80.44-2.72 0.57-5.4 1.32-8.1 1.99-29.01 0-58.02 0-87.34-0.18-1.83-0.56-3.34-0.95-4.85-1.31-8.17-1.97-16.43-3.63-24.49-5.96-25.45-7.37-49.2-18.49-71.2-33.25-34.95-23.47-62.57-53.65-82.56-90.74-12.8-23.75-21.62-48.93-26.68-75.43q-1.18-6.07-2.38-12.13c0-24.51 0-49.02 0.17-73.83 0.35-1.26 0.52-2.22 0.74-3.34 0.05-0.39 0.05-0.62 0.14-1.02 0.66-3.55 1.23-6.93 1.86-10.48 0.06-0.39 0.07-0.61 0.18-0.99 1.17-4.72 2.23-9.29 3.35-14 0.09-0.33 0.12-0.52 0.29-0.84 1.3-4.26 2.46-8.4 3.69-12.68 0.14-0.44 0.21-0.75 0.39-1.18 0.26-0.64 0.4-1.15 0.61-1.8 0.11-0.3 0.16-0.48 0.33-0.79 0.33-0.93 0.54-1.73 0.8-2.61 0.06-0.07 0.08-0.26 0.21-0.38 0.45-1.1 0.78-2.1 1.16-3.22 0.1-0.33 0.13-0.52 0.27-0.78 0.13-0.24 0.15-0.4 0.24-0.69 0.12-0.29 0.18-0.47 0.36-0.77 0.59-1.46 1.06-2.8 1.6-4.27 0.12-0.31 0.16-0.5 0.35-0.79 0.33-0.75 0.53-1.39 0.79-2.11 0.06-0.07 0.09-0.26 0.22-0.37 0.65-1.44 1.16-2.75 1.74-4.15 0.06-0.09 0.1-0.29 0.21-0.35 0.15-0.23 0.17-0.4 0.25-0.68 0.05-0.11 0.08-0.36 0.22-0.45 0.68-1.38 1.22-2.66 1.82-4.03 0.06-0.08 0.09-0.29 0.22-0.39 0.86-1.73 1.59-3.36 2.42-5.08 0.2-0.38 0.29-0.65 0.51-1.03 0.39-0.69 0.64-1.28 0.88-1.88-0.01 0 0.02 0 0.15-0.09 0.5-0.88 0.87-1.66 1.3-2.53 0.07-0.08 0.11-0.29 0.22-0.35 0.15-0.23 0.18-0.39 0.28-0.64 0.06-0.09 0.11-0.3 0.23-0.35 0.17-0.22 0.21-0.38 0.37-0.65 0.21-0.37 0.32-0.64 0.55-1 0.21-0.35 0.3-0.61 0.4-0.88 0.01-0.01 0-0.04 0.15-0.12 0.69-1.18 1.24-2.3 1.86-3.48 0.06-0.06 0.11-0.25 0.25-0.34 0.34-0.57 0.54-1.06 0.75-1.55-0.01-0.01 0.01-0.02 0.12-0.06 0.26-0.16 0.3-0.31 0.32-0.58 0.06-0.09 0.1-0.3 0.24-0.38 0.35-0.56 0.57-1.03 0.8-1.51 0.01 0 0-0.03 0.14-0.11 0.55-0.84 0.96-1.6 1.37-2.37 0-0.01 0.01-0.01 0.12-0.05 0.27-0.16 0.31-0.31 0.32-0.58 0.07-0.08 0.11-0.29 0.23-0.34 0.17-0.22 0.22-0.39 0.37-0.65 0.23-0.36 0.35-0.61 0.62-0.94 0.37-0.53 0.61-0.98 0.84-1.44-0.01-0.01 0.02-0.01 0.15-0.08 0.37-0.53 0.6-0.98 0.83-1.44 0.01 0 0.01-0.01 0.12-0.06 0.25-0.16 0.3-0.31 0.29-0.51 0.04-0.02 0.03-0.11 0.14-0.18 0.22-0.3 0.32-0.53 0.53-0.88 8.22-12.27 17.13-23.78 27.12-34.44 38.14-40.68 84.61-66.42 139.18-77.65 2.4-0.49 4.75-1.19 7.12-1.79 28.18 0 56.35 0 84.85 0.18 1.04 0.35 1.75 0.58 2.49 0.72 33.68 6.03 65 18.2 93.85 36.6 36.68 23.4 65.7 54.09 86.95 92.06 13.42 23.99 22.94 49.44 27.97 76.52 0.74 3.98 1.59 7.95 2.39 11.92zm-285.27-186.5c-22.61 2.99-44.32 9.12-64.96 18.85-39.23 18.5-70.7 46-94.77 82.02-12.94 19.36-22.63 40.29-29.9 62.36-0.39 1.2-0.41 2.52-0.61 3.78q0.37 0.11 0.73 0.22c1.37-1.79 2.83-3.53 4.1-5.4 13.28-19.55 29.42-36.3 48.69-50.06 32.22-23.01 68.14-35.56 107.53-38.19 19.35-1.29 38.61-0.07 57.66 3.92 32.51 6.79 61.65 20.31 85.61 43.63 27.47 26.73 43.1 59.36 47.05 97.53 0.12 1.16 0.02 2.34 0.02 2.85-7.38-4.53-14.51-9.69-22.29-13.56-32.3-16.1-65.61-18.21-99.07-4.37-41.86 17.31-66.29 49-73.34 93.69-3.01 19.09-1.18 38.06 4.83 56.48 8.65 26.53 24.95 47.09 49.09 61.08 25.21 14.61 52.53 18.93 81.23 15.17 22.44-2.94 43-10.99 61.68-23.67 30.93-20.99 53.9-48.84 69.94-82.46 11.79-24.73 18.62-50.84 21.12-78.12 1.71-18.67 1.2-37.29-1.68-55.79-4.39-28.13-13.46-54.65-27.95-79.28-17.61-29.96-40.88-54.56-69.55-74.05-28.33-19.27-59.5-31.41-93.46-36.28-20.4-2.92-40.82-3.28-61.7-0.35z"/>
	<path id="Shape 1" fill-rule="evenodd" class="s1" d="m287 533.02c-133.84 0-242.02-108.18-242.02-242.02 0-133.84 108.18-242.02 242.02-242.02 133.84 0 242.02 108.18 242.02 242.02 0 133.84-108.18 242.02-242.02 242.02z"/>
</svg>